<svg width="24" height="24" viewBox="0 0 24 24" fill="none" xmlns="http://www.w3.org/2000/svg">
<path d="M18.0002 20.79H6.00021C5.50437 20.7901 5.01345 20.6918 4.55585 20.5008C4.09825 20.3099 3.68307 20.0301 3.33432 19.6776C2.98557 19.3251 2.71019 18.907 2.5241 18.4474C2.33802 17.9878 2.24492 17.4959 2.25021 17V10C2.26333 9.01324 2.66389 8.07117 3.36545 7.37709C4.06702 6.68301 5.01333 6.29258 6.00021 6.29004H18.0002C18.9871 6.29258 19.9334 6.68301 20.635 7.37709C21.3365 8.07117 21.7371 9.01324 21.7502 10V17C21.7555 17.4959 21.6624 17.9878 21.4763 18.4474C21.2902 18.907 21.0149 19.3251 20.6661 19.6776C20.3174 20.0301 19.9022 20.3099 19.4446 20.5008C18.987 20.6918 18.4961 20.7901 18.0002 20.79ZM6.00021 7.79004C5.41034 7.78995 4.84403 8.0215 4.4232 8.43484C4.00237 8.84819 3.7607 9.41026 3.75021 10V17C3.7449 17.2989 3.79917 17.5957 3.90987 17.8734C4.02056 18.151 4.18545 18.4038 4.39491 18.617C4.60438 18.8301 4.85421 18.9995 5.12984 19.115C5.40546 19.2306 5.70134 19.2901 6.00021 19.29H18.0002C18.2991 19.2901 18.595 19.2306 18.8706 19.115C19.1462 18.9995 19.3961 18.8301 19.6055 18.617C19.815 18.4038 19.9799 18.151 20.0906 17.8734C20.2013 17.5957 20.2555 17.2989 20.2502 17V10C20.2397 9.41026 19.9981 8.84819 19.5772 8.43484C19.1564 8.0215 18.5901 7.78995 18.0002 7.79004H6.00021Z" fill="#D6DADE"/>
<path d="M21 17.29H15.45C14.6013 17.29 13.7874 16.9529 13.1873 16.3528C12.5871 15.7527 12.25 14.9387 12.25 14.09V13C12.2526 12.1522 12.5906 11.3398 13.1902 10.7402C13.7897 10.1407 14.6021 9.80269 15.45 9.80005H21C21.1989 9.80005 21.3897 9.87907 21.5303 10.0197C21.671 10.1604 21.75 10.3511 21.75 10.55C21.75 10.749 21.671 10.9397 21.5303 11.0804C21.3897 11.221 21.1989 11.3 21 11.3H15.45C14.9991 11.3 14.5667 11.4792 14.2479 11.798C13.9291 12.1168 13.75 12.5492 13.75 13V14.1C13.75 14.5509 13.9291 14.9833 14.2479 15.3021C14.5667 15.6209 14.9991 15.8 15.45 15.8H21C21.1989 15.8 21.3897 15.8791 21.5303 16.0197C21.671 16.1604 21.75 16.3511 21.75 16.55C21.75 16.749 21.671 16.9397 21.5303 17.0804C21.3897 17.221 21.1989 17.3 21 17.3V17.29Z" fill="#D6DADE"/>
<path d="M17 14.29C16.8012 14.2898 16.6106 14.2107 16.47 14.07C16.3995 14.0011 16.3436 13.9186 16.3058 13.8275C16.268 13.7364 16.249 13.6386 16.25 13.54C16.2496 13.4434 16.2701 13.3479 16.31 13.26C16.3477 13.1676 16.4019 13.0829 16.47 13.01C16.6107 12.8695 16.8013 12.7906 17 12.7906C17.1988 12.7906 17.3894 12.8695 17.53 13.01C17.5981 13.0829 17.6524 13.1676 17.69 13.26C17.73 13.3479 17.7505 13.4434 17.75 13.54C17.7511 13.6386 17.7321 13.7364 17.6943 13.8275C17.6565 13.9186 17.6006 14.0011 17.53 14.07C17.3895 14.2107 17.1989 14.2898 17 14.29Z" fill="#D6DADE"/>
<path d="M6.33039 7.79002C6.15369 7.78733 5.98361 7.72233 5.85015 7.60649C5.7167 7.49064 5.62844 7.33139 5.60094 7.15682C5.57343 6.98225 5.60846 6.80357 5.69984 6.65231C5.79122 6.50104 5.93307 6.3869 6.10039 6.33002L15.3404 3.33002C15.6103 3.24179 15.897 3.21723 16.178 3.25827C16.459 3.29931 16.7267 3.40483 16.9601 3.56657C17.1935 3.72831 17.3863 3.94189 17.5234 4.19057C17.6605 4.43926 17.7382 4.7163 17.7504 5.00002V7.00002C17.7504 7.19893 17.6714 7.3897 17.5307 7.53035C17.3901 7.671 17.1993 7.75002 17.0004 7.75002C16.8015 7.75002 16.6107 7.671 16.4701 7.53035C16.3294 7.3897 16.2504 7.19893 16.2504 7.00002V5.00002C16.2504 4.94709 16.2377 4.89492 16.2134 4.84793C16.189 4.80094 16.1537 4.7605 16.1104 4.73002C16.0637 4.70707 16.0124 4.69514 15.9604 4.69514C15.9084 4.69514 15.8571 4.70707 15.8104 4.73002L6.57039 7.73002C6.49318 7.75988 6.41257 7.78003 6.33039 7.79002Z" fill="#D6DADE"/>
</svg>
